<?xml version='1.0' encoding='utf-8'?>
<svg xmlns="http://www.w3.org/2000/svg" version="1.1" width="841px" height="600px" viewBox="140 802 841 600"> <g id="layer1"> <g style="fill:rgb(4,27,31); fill-opacity:1.0; stroke-linejoin: miter"> <path d="M139.999,801.52844C139.87418,801.52844,139.75449,801.578,139.66623,801.66626C139.57797,801.7545,139.52838,801.8742,139.52838,801.999L139.52939,1402.0C139.52939,1402.2599,139.7401,1402.4706,140.0,1402.4706L981.001,1402.4716C981.1258,1402.4716,981.2455,1402.422,981.33374,1402.3337C981.422,1402.2455,981.47156,1402.1257,981.47156,1402.001L981.4706,802.0C981.4706,801.7401,981.2599,801.5294,981.0,801.5294L139.999,801.52844 Z"/> </g> <g style="fill:rgb(255,0,0); fill-opacity:1.0; stroke-linejoin: miter"> <path d="M457.71033,1028.2136L564.32556,937.73706L496.92596,1026.0675 Z"/> </g> <g style="fill:rgb(156,0,0); fill-opacity:1.0; stroke-linejoin: miter"> <path d="M564.32556,937.73706L496.92596,1026.0675L524.7621,1050.1919 Z"/> </g> <g style="fill:rgb(255,0,0); fill-opacity:1.0; stroke-linejoin: miter"> <path d="M564.32556,937.73706L517.8287,1024.4323L563.7712,1050.9436 Z"/> </g> <g style="fill:rgb(90,0,0); fill-opacity:1.0; stroke-linejoin: miter"> <path d="M524.7621,1050.1919L517.8287,1024.4323L531.1211,1032.0985 Z"/> </g> <g style="fill:rgb(255,0,0); fill-opacity:1.0; stroke-linejoin: miter"> <path d="M517.60364,1059.5255C517.60364,1059.5255,517.3047,1060.3019,516.71423,1061.697 Z"/> </g> <g style="fill:rgb(255,0,0); fill-opacity:1.0; stroke-linejoin: miter"> <path d="M532.98944,1009.0396Q533.39575,1010.4924,534.2046,1011.6683Q534.97473,1012.7583,535.52423,1012.66406Q535.76337,1012.638,536.06146,1012.4506Q538.08307,1010.9516,539.2962,1010.33984Q539.72125,1010.12463,540.0103,1010.0405Q540.1353,1009.99023,540.85126,1009.8713L541.1501,1009.7869Q541.4361,1009.6907,541.8038,1009.48413Q542.87854,1008.8597,543.902,1007.93713Q545.8429,1006.21844,544.1162,1005.6088Q543.6516,1005.4598,543.2741,1005.5671Q543.1252,1005.6064,542.9296,1005.7053Q542.02374,1006.2607,541.7542,1006.3354Q541.2508,1006.52167,540.6978,1006.5249Q539.677,1006.57275,536.66266,1005.67084L533.0065,1009.02435 Z"/> </g> <g style="fill:rgb(255,0,0); fill-opacity:1.0; stroke-linejoin: miter"> <path d="M522.1068,1018.3136L518.85223,1021.7771Q519.9538,1023.6884,520.72345,1024.4967Q522.30286,1026.1943,523.714,1025.7006Q524.5547,1025.4819,526.30554,1024.1373Q527.60754,1023.0379,527.7471,1022.39935Q527.85406,1021.98175,527.4199,1021.6798Q527.1979,1021.51904,526.8115,1021.35376Q525.1537,1020.7282,525.02893,1020.64874Q524.5978,1020.45184,524.22095,1020.2135Q523.37946,1019.70276,522.10815,1018.31476 Z"/> </g> <g style="fill:rgb(255,0,0); fill-opacity:1.0; stroke-linejoin: miter"> <path d="M549.0403,979.6555L546.06024,978.5108L543.0804,977.36566Q530.66327,1000.5352,518.2469,1023.7057Q525.91406,1028.1554,533.5821,1032.6055Q544.98505,1015.997,556.3884,999.3892L549.0403,979.6555 Z"/> </g> <g> <g style="fill:rgb(255,255,255); fill-opacity:1.0; stroke-linejoin: miter"> <path d="M298.5197,1161.4869L438.3294,1159.0405L330.21918,1184.6738 Z"/> </g> <g style="fill:rgb(220,229,235); fill-opacity:1.0; stroke-linejoin: miter"> <path d="M438.3294,1159.0405L330.21918,1184.6738L336.46967,1220.9755 Z"/> </g> <g style="fill:rgb(255,255,255); fill-opacity:1.0; stroke-linejoin: miter"> <path d="M438.3294,1159.0405L347.42706,1196.653L366.1729,1246.2734 Z"/> </g> <g style="fill:rgb(60,70,79); fill-opacity:1.0; stroke-linejoin: miter"> <path d="M336.46967,1220.9755L347.42706,1196.653L352.8532,1211.0062 Z"/> </g> <g style="fill:rgb(0,0,0); fill-opacity:1.0; stroke-linejoin: miter"> <path d="M325.01764,1223.6604C325.01764,1223.6604,324.2945,1224.0719,322.95343,1224.7769 Z"/> </g> <g style="fill:rgb(0,0,0); fill-opacity:1.0; stroke-linejoin: miter"> <path d="M368.90887,1194.35Q368.30292,1195.7314,368.18353,1197.1538Q368.08868,1198.485,368.57367,1198.7604Q368.77484,1198.8916,369.12457,1198.9355Q371.63824,1199.0569,372.96442,1199.352Q373.42987,1199.4551,373.7066,1199.573Q373.83514,1199.613,374.46454,1199.975L374.7492,1200.0991Q375.0313,1200.2058,375.4466,1200.279Q376.67365,1200.4766,378.0501,1200.411Q380.6407,1200.3116,379.69086,1198.746Q379.42584,1198.336,379.0661,1198.1803Q378.9261,1198.116,378.7121,1198.0684Q377.65924,1197.9246,377.40314,1197.8118Q376.8957,1197.6365,376.46588,1197.2887Q375.64606,1196.6791,373.88544,1194.0713L368.93158,1194.349 Z"/> </g> <g style="fill:rgb(0,0,0); fill-opacity:1.0; stroke-linejoin: miter"> <path d="M354.61383,1194.6299L349.90143,1195.2471Q349.54266,1197.4238,349.62616,1198.5367Q349.77216,1200.8511,351.17657,1201.3632Q351.9654,1201.7266,354.17206,1201.795Q355.87604,1201.77,356.3885,1201.3645Q356.73578,1201.1089,356.59113,1200.6003Q356.52106,1200.3352,356.3272,1199.9625Q355.44086,1198.4285,355.3946,1198.2878Q355.18597,1197.8622,355.04547,1197.4393Q354.71832,1196.5104,354.61395,1194.6318 Z"/> </g> <g style="fill:rgb(255,255,255); fill-opacity:1.0; stroke-linejoin: miter"> <path d="M399.94476,1181.7863L398.3647,1179.0127L396.7845,1176.2389Q372.49786,1186.297,348.21088,1196.3552Q351.3233,1204.656,354.43597,1212.9574Q373.7812,1207.3336,393.1264,1201.7096L399.94476,1181.7863 Z"/> </g> </g> <g> <g style="fill:rgb(255,255,255); fill-opacity:1.0; stroke-linejoin: miter"> <path d="M383.7448,1265.1162L523.5546,1262.6699L415.44427,1288.303 Z"/> </g> <g style="fill:rgb(220,229,235); fill-opacity:1.0; stroke-linejoin: miter"> <path d="M523.5546,1262.6699L415.44427,1288.303L421.69476,1324.6042 Z"/> </g> <g style="fill:rgb(255,255,255); fill-opacity:1.0; stroke-linejoin: miter"> <path d="M523.5546,1262.6699L432.65204,1300.2821L451.398,1349.9027 Z"/> </g> <g style="fill:rgb(60,70,79); fill-opacity:1.0; stroke-linejoin: miter"> <path d="M421.69476,1324.6042L432.65204,1300.2821L438.0782,1314.6351 Z"/> </g> <g style="fill:rgb(0,0,0); fill-opacity:1.0; stroke-linejoin: miter"> <path d="M410.2425,1327.2893C410.2425,1327.2893,409.51935,1327.7008,408.1784,1328.4059 Z"/> </g> <g style="fill:rgb(0,0,0); fill-opacity:1.0; stroke-linejoin: miter"> <path d="M454.13385,1297.9792Q453.5279,1299.3605,453.40863,1300.7827Q453.31378,1302.1143,453.79865,1302.3895Q453.99994,1302.5208,454.34967,1302.5646Q456.86322,1302.686,458.1895,1302.9811Q458.65497,1303.084,458.93158,1303.2023Q459.06024,1303.2421,459.6895,1303.604L459.97418,1303.7284Q460.2563,1303.835,460.6717,1303.9082Q461.89874,1304.1058,463.2751,1304.0403Q465.86566,1303.9409,464.91595,1302.3752Q464.65082,1301.9653,464.2912,1301.8096Q464.15118,1301.7451,463.93707,1301.6976Q462.88434,1301.5537,462.6281,1301.441Q462.1208,1301.2657,461.69086,1300.918Q460.87103,1300.3081,459.1104,1297.7006L454.15668,1297.9781 Z"/> </g> <g style="fill:rgb(0,0,0); fill-opacity:1.0; stroke-linejoin: miter"> <path d="M439.8388,1298.259L435.12653,1298.8761Q434.76764,1301.0527,434.85114,1302.1659Q434.99713,1304.48,436.40155,1304.9921Q437.1905,1305.3558,439.39716,1305.4243Q441.10114,1305.3992,441.61346,1304.9938Q441.96088,1304.738,441.81622,1304.2294Q441.74603,1303.964,441.55243,1303.5916Q440.66595,1302.0576,440.6197,1301.9167Q440.41107,1301.4912,440.27057,1301.0684Q439.9433,1300.1395,439.83905,1298.2607 Z"/> </g> <g style="fill:rgb(255,255,255); fill-opacity:1.0; stroke-linejoin: miter"> <path d="M485.16998,1285.4155L483.58978,1282.642L482.00946,1279.8682Q457.72284,1289.9263,433.43597,1299.9845Q436.54828,1308.2852,439.66107,1316.5864Q459.00616,1310.9628,478.35138,1305.3389L485.16998,1285.4155 Z"/> </g> </g> <g> <g style="fill:rgb(255,255,255); fill-opacity:1.0; stroke-linejoin: miter"> <path d="M532.6156,1196.31L672.4254,1193.8638L564.31506,1219.4968 Z"/> </g> <g style="fill:rgb(220,229,235); fill-opacity:1.0; stroke-linejoin: miter"> <path d="M672.4254,1193.8638L564.31506,1219.4968L570.56555,1255.7981 Z"/> </g> <g style="fill:rgb(255,255,255); fill-opacity:1.0; stroke-linejoin: miter"> <path d="M672.4254,1193.8638L581.5228,1231.4761L600.2688,1281.0967 Z"/> </g> <g style="fill:rgb(60,70,79); fill-opacity:1.0; stroke-linejoin: miter"> <path d="M570.56555,1255.7981L581.5228,1231.4761L586.949,1245.8291 Z"/> </g> <g style="fill:rgb(0,0,0); fill-opacity:1.0; stroke-linejoin: miter"> <path d="M559.1133,1258.4832C559.1133,1258.4832,558.39014,1258.8948,557.0492,1259.5999 Z"/> </g> <g style="fill:rgb(0,0,0); fill-opacity:1.0; stroke-linejoin: miter"> <path d="M603.00464,1229.1731Q602.3987,1230.5544,602.2794,1231.9766Q602.1846,1233.3081,602.66943,1233.5835Q602.8707,1233.7146,603.22046,1233.7585Q605.734,1233.8799,607.0603,1234.175Q607.52576,1234.2778,607.80237,1234.3962Q607.931,1234.436,608.5603,1234.7979L608.845,1234.9224Q609.1271,1235.0288,609.5425,1235.102Q610.76953,1235.2998,612.1459,1235.2341Q614.73645,1235.1348,613.78674,1233.5691Q613.5216,1233.1592,613.162,1233.0034Q613.022,1232.939,612.80786,1232.8916Q611.7551,1232.7476,611.4989,1232.635Q610.9916,1232.4597,610.56165,1232.1118Q609.7418,1231.502,607.9812,1228.8945L603.02747,1229.1721 Z"/> </g> <g style="fill:rgb(0,0,0); fill-opacity:1.0; stroke-linejoin: miter"> <path d="M588.7096,1229.4529L583.9973,1230.0701Q583.6384,1232.2466,583.7219,1233.3599Q583.8679,1235.6738,585.27234,1236.186Q586.0613,1236.5498,588.26794,1236.6182Q589.9719,1236.593,590.48425,1236.1877Q590.83167,1235.9319,590.687,1235.4233Q590.6168,1235.158,590.4232,1234.7854Q589.53674,1233.2515,589.4905,1233.1106Q589.28186,1232.685,589.14136,1232.2622Q588.8141,1231.3335,588.70984,1229.4546 Z"/> </g> <g style="fill:rgb(255,255,255); fill-opacity:1.0; stroke-linejoin: miter"> <path d="M634.0408,1216.6094L632.4606,1213.8359L630.88025,1211.062Q606.5936,1221.1201,582.30676,1231.1785Q585.41907,1239.479,588.53186,1247.7803Q607.87695,1242.1567,627.22217,1236.5327L634.0408,1216.6094 Z"/> </g> </g> <g> <g style="fill:rgb(255,255,255); fill-opacity:1.0; stroke-linejoin: miter"> <path d="M608.3975,1027.1127L748.20715,1024.6661L640.097,1050.2994 Z"/> </g> <g style="fill:rgb(220,229,235); fill-opacity:1.0; stroke-linejoin: miter"> <path d="M748.20715,1024.6661L640.097,1050.2994L646.3474,1086.6012 Z"/> </g> <g style="fill:rgb(255,255,255); fill-opacity:1.0; stroke-linejoin: miter"> <path d="M748.20715,1024.6661L657.3048,1062.2787L676.05066,1111.899 Z"/> </g> <g style="fill:rgb(60,70,79); fill-opacity:1.0; stroke-linejoin: miter"> <path d="M646.3474,1086.6012L657.3048,1062.2787L662.73096,1076.632 Z"/> </g> <g style="fill:rgb(0,0,0); fill-opacity:1.0; stroke-linejoin: miter"> <path d="M634.8954,1089.286C634.8954,1089.286,634.17224,1089.6976,632.8312,1090.4025 Z"/> </g> <g style="fill:rgb(0,0,0); fill-opacity:1.0; stroke-linejoin: miter"> <path d="M678.7866,1059.9757Q678.18066,1061.357,678.0613,1062.7794Q677.96643,1064.1107,678.4514,1064.3861Q678.6526,1064.5172,679.0023,1064.5612Q681.516,1064.6825,682.84216,1064.9777Q683.3076,1065.0807,683.58435,1065.1986Q683.7129,1065.2386,684.3423,1065.6007L684.62695,1065.7247Q684.90906,1065.8314,685.32434,1065.9047Q686.5514,1066.1022,687.92786,1066.0367Q690.51843,1065.9374,689.5686,1064.3717Q689.3036,1063.9618,688.94385,1063.806Q688.80383,1063.7416,688.58984,1063.694Q687.537,1063.5502,687.2809,1063.4374Q686.77344,1063.2621,686.3436,1062.9144Q685.5238,1062.3048,683.7632,1059.6969L678.8093,1059.9747 Z"/> </g> <g style="fill:rgb(0,0,0); fill-opacity:1.0; stroke-linejoin: miter"> <path d="M664.4916,1060.2555L659.7792,1060.8727Q659.4204,1063.0494,659.5039,1064.1625Q659.6499,1066.4767,661.0543,1066.9889Q661.84314,1067.3522,664.0498,1067.4208Q665.7538,1067.3956,666.26624,1066.9901Q666.6135,1066.7345,666.4689,1066.226Q666.3988,1065.9608,666.20496,1065.5883Q665.3186,1064.0541,665.27234,1063.9135Q665.0637,1063.4879,664.9232,1063.0651Q664.59607,1062.1361,664.4917,1060.2574 Z"/> </g> <g style="fill:rgb(255,255,255); fill-opacity:1.0; stroke-linejoin: miter"> <path d="M709.8225,1047.412L708.24243,1044.6383L706.66223,1041.8646Q682.3756,1051.9227,658.0886,1061.9808Q661.20105,1070.2816,664.3137,1078.5831Q683.65894,1072.9594,703.00415,1067.3353L709.8225,1047.412 Z"/> </g> </g> <g> <g style="fill:rgb(255,255,255); fill-opacity:1.0; stroke-linejoin: miter"> <path d="M693.62256,1130.7418L833.4324,1128.2955L725.322,1153.9286 Z"/> </g> <g style="fill:rgb(220,229,235); fill-opacity:1.0; stroke-linejoin: miter"> <path d="M833.4324,1128.2955L725.322,1153.9286L731.5725,1190.2299 Z"/> </g> <g style="fill:rgb(255,255,255); fill-opacity:1.0; stroke-linejoin: miter"> <path d="M833.4324,1128.2955L742.5298,1165.9078L761.27576,1215.5284 Z"/> </g> <g style="fill:rgb(60,70,79); fill-opacity:1.0; stroke-linejoin: miter"> <path d="M731.5725,1190.2299L742.5298,1165.9078L747.95593,1180.2609 Z"/> </g> <g style="fill:rgb(0,0,0); fill-opacity:1.0; stroke-linejoin: miter"> <path d="M720.12024,1192.9149C720.12024,1192.9149,719.3971,1193.3265,718.05615,1194.0316 Z"/> </g> <g style="fill:rgb(0,0,0); fill-opacity:1.0; stroke-linejoin: miter"> <path d="M764.0116,1163.6049Q763.40564,1164.9862,763.2864,1166.4083Q763.1915,1167.7399,763.6764,1168.0153Q763.8777,1168.1464,764.2274,1168.1903Q766.74097,1168.3116,768.06726,1168.6068Q768.5327,1168.7096,768.8093,1168.828Q768.938,1168.8678,769.56726,1169.2296L769.8519,1169.3541Q770.13403,1169.4606,770.54944,1169.5338Q771.7765,1169.7316,773.15283,1169.6659Q775.7434,1169.5665,774.7937,1168.0009Q774.52856,1167.591,774.16895,1167.4352Q774.02893,1167.3707,773.8148,1167.3234Q772.7621,1167.1793,772.50586,1167.0668Q771.99854,1166.8915,771.5686,1166.5436Q770.7488,1165.9337,768.98816,1163.3263L764.0344,1163.6039 Z"/> </g> <g style="fill:rgb(0,0,0); fill-opacity:1.0; stroke-linejoin: miter"> <path d="M749.71655,1163.8846L745.0043,1164.5018Q744.6454,1166.6783,744.7289,1167.7916Q744.8749,1170.1056,746.2793,1170.6178Q747.06824,1170.9816,749.2749,1171.0499Q750.9789,1171.0248,751.4912,1170.6195Q751.8386,1170.3636,751.694,1169.8551Q751.6238,1169.5897,751.4302,1169.2172Q750.5437,1167.6832,750.49744,1167.5424Q750.2888,1167.1168,750.1483,1166.694Q749.82104,1165.7653,749.7168,1163.8864 Z"/> </g> <g style="fill:rgb(255,255,255); fill-opacity:1.0; stroke-linejoin: miter"> <path d="M795.0477,1151.0411L793.4675,1148.2677L791.8872,1145.4938Q767.6006,1155.5519,743.3137,1165.6102Q746.426,1173.9108,749.5388,1182.212Q768.8839,1176.5885,788.2291,1170.9645L795.0477,1151.0411 Z"/> </g> </g> </g> </svg>